<svg xmlns="http://www.w3.org/2000/svg" viewBox="0 0 1809.99 389.42"><defs><style>.cls-1{fill:none;}.cls-2{fill:#ff0;}</style></defs><g id="Laag_2" data-name="Laag 2"><g id="Laag_1-2" data-name="Laag 1"><rect class="cls-1" width="1809.99" height="389.42" rx="15.31"/><ellipse class="cls-2" cx="175.56" cy="154.55" rx="65.43" ry="63.7"/><ellipse cx="186.47" cy="152.25" rx="24.83" ry="21.96"/><path d="M268.12,150.75A98.38,98.38,0,1,0,87.63,204.93C104.22,236.23,211.29,337,211.29,337c55.3-121.59,56.58-179.26,56.58-179.26h0C268,155.46,268.12,153.11,268.12,150.75Zm-92.56,53.31c-29.88,0-54.1-22.17-54.1-49.51S145.68,105,175.56,105s54.1,22.17,54.1,49.51S205.44,204.06,175.56,204.06Z"/><path d="M427.37,284.27v-15.9s-13.25,18.29-42.4,18.29c-37.89,0-68.63-30.74-68.63-68.11A68.25,68.25,0,0,1,385,150.18c29.15,0,42.4,18.29,42.4,18.29v-16.7h25.71v132.5ZM385.5,263.6c23.06,0,41.34-20.14,41.34-44.52,0-24.64-18.28-45.05-41.34-45.05s-41.34,20.41-41.34,45.05C344.16,243.46,362.45,263.6,385.5,263.6Z"/><path d="M534.17,246.11c0,12.19,7.15,15.64,18,15.64v26.5c-28.89,0-44-12.19-44-42.14v-70H484.61V151.77H508.2V102l26-8v57.77h30.74v24.38H534.17Z"/><path d="M688.66,245.05c0,24.38-21.73,41.61-49,41.61s-52.47-17.76-52.47-42.14h27.56c0,9.28,10.07,19.08,24.91,19.08,15.1,0,23.05-9,23.05-18.28,0-7.69-5.3-16.43-16.43-18.82l-17.75-4.24c-19.88-5.3-33.66-18-33.66-36.3,0-20.94,15.64-37.1,41.34-37.1,27,0,42.14,14,44.79,32.33h-26.5c0-6.36-9-10.34-18.29-10.34-11.39,0-16.43,6.63-16.43,14.84,0,6.1,1.33,11.4,8.75,13.78,5,1.59,10.33,2.92,17.75,4.51C670.11,208.75,688.66,222.79,688.66,245.05Z"/><path d="M805.53,250.09H836.8a65.34,65.34,0,0,1-59.1,36.83c-38.16,0-67.84-31-67.84-68.63,0-37.9,29.68-68.9,67.84-68.9,37.9,0,66.78,31,66.78,68.9a62.07,62.07,0,0,1-.79,10.07h-106c4,20.14,19.87,35,39.48,35A36.24,36.24,0,0,0,805.53,250.09Zm-67.31-43.2h77.11c-4.24-19.08-19.08-33.12-38.16-33.12S742.72,187.81,738.22,206.89Z"/><path d="M990.23,208.75v75.52H964V208.75c0-24.65-18.29-32.6-28.89-32.6-19.08,0-36.83,9-36.83,35.25v72.87H872V151.77h26.24V164c6.62-9,18.55-14.84,36.83-14.84C959.49,149.12,990.23,161.84,990.23,208.75Z"/><path d="M1085.89,173.5c-23.05,0-41.34,20.14-41.34,44.52,0,24.91,18.29,44.79,41.34,44.79,13.78,0,24.91-7.69,31.54-19.08h28.88c-9.27,24.91-31.53,42.4-60.15,42.4-37.63,0-68.63-30.74-68.63-68.37,0-37.9,31-68.37,68.63-68.37,28.09,0,50.35,17.22,59.89,41.6h-29.68C1109.74,180.13,1098.88,173.5,1085.89,173.5Z"/><path d="M1266.62,250.09h31.27a65.33,65.33,0,0,1-59.09,36.83c-38.16,0-67.84-31-67.84-68.63,0-37.9,29.68-68.9,67.84-68.9,37.89,0,66.78,31,66.78,68.9a62.05,62.05,0,0,1-.8,10.07h-106c4,20.14,19.88,35,39.49,35A36.22,36.22,0,0,0,1266.62,250.09Zm-67.31-43.2h77.12c-4.24-19.08-19.08-33.12-38.16-33.12S1203.82,187.81,1199.31,206.89Z"/><path d="M1364,196v7c-7.63,0-11.76-3.29-11.76-11.2V150.12l7-2.1v43.82C1359.23,195.06,1361.05,196,1364,196Z"/><path d="M1386.67,202.34a18,18,0,1,1,17.92-18A18,18,0,0,1,1386.67,202.34Zm-.14-6.09c6,0,10.78-5.25,10.78-11.76s-4.83-11.76-10.78-11.76-10.78,5.32-10.78,11.76S1380.51,196.25,1386.53,196.25Z"/><path d="M1428.32,172.66c-6.09,0-10.92,5.32-10.92,11.76s4.83,11.83,10.92,11.83a9.56,9.56,0,0,0,8.33-5h7.63a16.7,16.7,0,0,1-15.89,11.2,18.06,18.06,0,1,1,0-36.12,16.81,16.81,0,0,1,15.82,11h-7.84A9.26,9.26,0,0,0,1428.32,172.66Z"/><path d="M1478.09,201.92v-4.2s-3.5,4.83-11.2,4.83a18,18,0,1,1,0-36.05c7.7,0,11.2,4.83,11.2,4.83v-4.41h6.79v35ZM1467,196.46c6.09,0,10.92-5.32,10.92-11.76s-4.83-11.9-10.92-11.9-10.92,5.39-10.92,11.9S1460.94,196.46,1467,196.46Z"/><path d="M1528.77,201.92h-6.93V173.36H1504.9v17.22c0,3.22,1.82,4.9,4.76,4.9v7c-7.63,0-11.62-4-11.62-11.9V173.36h-6.23v-6.44H1498V153.76l6.86-2.1v15.26h23.87Zm-8.26-49a4.77,4.77,0,0,1,9.52,0,4.76,4.76,0,0,1-9.52,0Z"/><path d="M1557,202.34a18,18,0,1,1,17.92-18A18,18,0,0,1,1557,202.34Zm-.14-6.09c6,0,10.78-5.25,10.78-11.76s-4.83-11.76-10.78-11.76-10.78,5.32-10.78,11.76S1550.82,196.25,1556.84,196.25Z"/><path d="M1614,182v19.95H1607V182c0-6.51-4.83-8.61-7.63-8.61-5,0-9.73,2.38-9.73,9.31v19.25h-6.93v-35h6.93v3.22c1.75-2.38,4.9-3.92,9.73-3.92C1605.84,166.22,1614,169.58,1614,182Z"/><path d="M1356.57,241.47a4.52,4.52,0,1,1,4.76-4.55A4.63,4.63,0,0,1,1356.57,241.47Zm3.57,9.52v34.93h-6.93V251Z"/><path d="M1401.86,266v19.95h-6.93V266c0-6.51-4.83-8.61-7.63-8.61-5,0-9.73,2.38-9.73,9.31v19.25h-6.93v-35h6.93v3.22c1.75-2.38,4.9-3.92,9.73-3.92C1393.74,250.22,1401.86,253.58,1401.86,266Z"/><path d="M1421,275.84c0,3.22,1.89,4.13,4.76,4.13v7c-7.63,0-11.62-3.22-11.62-11.13V257.36h-6.23v-6.44h6.23V237.76l6.86-2.1v15.26h8.12v6.44H1421Z"/><path d="M1459,276.89h8.26a17.26,17.26,0,0,1-15.61,9.73,18.17,18.17,0,0,1,0-36.33c10,0,17.64,8.19,17.64,18.2a16.38,16.38,0,0,1-.21,2.66h-28c1,5.32,5.25,9.24,10.43,9.24A9.57,9.57,0,0,0,1459,276.89Zm-17.78-11.41h20.37c-1.12-5-5-8.75-10.08-8.75S1442.39,260.44,1441.2,265.48Z"/><path d="M1489.85,280v7c-7.63,0-11.76-3.29-11.76-11.2V234.12l7-2.1v43.82C1485.09,279.06,1486.91,280,1489.85,280Z"/><path d="M1509.59,280v7c-7.63,0-11.76-3.29-11.76-11.2V234.12l7-2.1v43.82C1504.83,279.06,1506.65,280,1509.59,280Z"/><path d="M1521.91,241.47a4.52,4.52,0,1,1,4.76-4.55A4.63,4.63,0,0,1,1521.91,241.47Zm3.57,9.52v34.93h-6.93V251Z"/><path d="M1570,285.36c0,9.45-8,17.36-18,17.36a18.34,18.34,0,0,1-14.14-6.51l6.09-3.85c2.1,2,4.34,4,7.91,4,7.28,0,10.57-5.25,11.2-11V281.3a15,15,0,0,1-11.06,5,18.06,18.06,0,1,1,0-36.12,15.1,15.1,0,0,1,11.06,4.83v-4.06H1570Zm-7.14-17.22c0-6.44-4.83-11.69-10.78-11.69s-10.71,5.25-10.71,11.69,4.76,11.76,10.71,11.76S1562.86,274.65,1562.86,268.14Z"/><path d="M1603.11,276.89h8.26a17.26,17.26,0,0,1-15.61,9.73,18.17,18.17,0,0,1,0-36.33c10,0,17.64,8.19,17.64,18.2a16.38,16.38,0,0,1-.21,2.66h-28c1,5.32,5.25,9.24,10.43,9.24A9.57,9.57,0,0,0,1603.11,276.89Zm-17.78-11.41h20.37c-1.12-5-5-8.75-10.08-8.75S1586.52,260.44,1585.33,265.48Z"/><path d="M1651.9,266v19.95H1645V266c0-6.51-4.83-8.61-7.63-8.61-5,0-9.73,2.38-9.73,9.31v19.25h-6.92v-35h6.92v3.22c1.75-2.38,4.9-3.92,9.73-3.92C1643.78,250.22,1651.9,253.58,1651.9,266Z"/><path d="M1677.17,256.66c-6.08,0-10.91,5.32-10.91,11.76s4.83,11.83,10.91,11.83a9.56,9.56,0,0,0,8.33-5h7.63a16.7,16.7,0,0,1-15.89,11.2,18.06,18.06,0,1,1,0-36.12,16.81,16.81,0,0,1,15.82,11h-7.84A9.26,9.26,0,0,0,1677.17,256.66Z"/><path d="M1724.91,276.89h8.26a17.25,17.25,0,0,1-15.6,9.73,18.17,18.17,0,0,1,0-36.33c10,0,17.63,8.19,17.63,18.2a16.38,16.38,0,0,1-.21,2.66h-28c1,5.32,5.25,9.24,10.42,9.24A9.57,9.57,0,0,0,1724.91,276.89Zm-17.77-11.41h20.36c-1.12-5-5-8.75-10.08-8.75S1708.33,260.44,1707.14,265.48Z"/></g></g></svg>