{
  "accessors": [
    {
      "bufferView": 2,
      "componentType": 5126,
      "count": 302,
      "max": [
        -0.02782289683818817,
        1.4686273336410522,
        1.9950366020202637
      ],
      "min": [
        -0.6379843950271606,
        1.3334312438964844,
        1.8085755109786987
      ],
      "type": "VEC3"
    },
    {
      "bufferView": 2,
      "byteOffset": 3624,
      "componentType": 5126,
      "count": 302,
      "max": [
        0.9978134632110596,
        0.9802463054656982,
        0.9974324703216553
      ],
      "min": [
        -0.995410680770874,
        -0.9987936019897461,
        -0.9961696863174438
      ],
      "type": "VEC3"
    },
    {
      "bufferView": 1,
      "componentType": 5126,
      "count": 302,
      "max": [
        0.9202872514724731,
        0.9975221157073975
      ],
      "min": [
        0.011147936806082726,
        0.0855480432510376
      ],
      "type": "VEC2"
    },
    {
      "bufferView": 1,
      "byteOffset": 2416,
      "componentType": 5126,
      "count": 302,
      "max": [
        0.9202872514724731,
        0.9975221157073975
      ],
      "min": [
        0.011147936806082726,
        0.0855480432510376
      ],
      "type": "VEC2"
    },
    {
      "bufferView": 1,
      "byteOffset": 4832,
      "componentType": 5126,
      "count": 302,
      "max": [
        0.9202872514724731,
        0.9975221157073975
      ],
      "min": [
        0.011147936806082726,
        0.0855480432510376
      ],
      "type": "VEC2"
    },
    {
      "bufferView": 1,
      "byteOffset": 7248,
      "componentType": 5126,
      "count": 302,
      "max": [
        0.9202872514724731,
        0.9975221157073975
      ],
      "min": [
        0.011147936806082726,
        0.0855480432510376
      ],
      "type": "VEC2"
    },
    {
      "bufferView": 1,
      "byteOffset": 9664,
      "componentType": 5126,
      "count": 302,
      "max": [
        0.9202872514724731,
        0.9975221157073975
      ],
      "min": [
        0.011147936806082726,
        0.0855480432510376
      ],
      "type": "VEC2"
    },
    {
      "bufferView": 1,
      "byteOffset": 12080,
      "componentType": 5126,
      "count": 302,
      "max": [
        0.9202872514724731,
        0.9975221157073975
      ],
      "min": [
        0.011147936806082726,
        0.0855480432510376
      ],
      "type": "VEC2"
    },
    {
      "bufferView": 1,
      "byteOffset": 14496,
      "componentType": 5126,
      "count": 302,
      "max": [
        0.9202872514724731,
        0.9975221157073975
      ],
      "min": [
        0.011147936806082726,
        0.0855480432510376
      ],
      "type": "VEC2"
    },
    {
      "bufferView": 1,
      "byteOffset": 16912,
      "componentType": 5126,
      "count": 302,
      "max": [
        0.9202872514724731,
        0.9975221157073975
      ],
      "min": [
        0.011147936806082726,
        0.0855480432510376
      ],
      "type": "VEC2"
    },
    {
      "bufferView": 1,
      "byteOffset": 19328,
      "componentType": 5126,
      "count": 302,
      "max": [
        0.9202872514724731,
        0.9975221157073975
      ],
      "min": [
        0.011147936806082726,
        0.0855480432510376
      ],
      "type": "VEC2"
    },
    {
      "bufferView": 0,
      "componentType": 5125,
      "count": 1530,
      "type": "SCALAR"
    },
    {
      "bufferView": 2,
      "byteOffset": 7248,
      "componentType": 5126,
      "count": 8527,
      "max": [
        2.1274755001068115,
        3.3363866806030273,
        2.6675028800964355
      ],
      "min": [
        -1.0523302555084229,
        0.02016398310661316,
        -4.447502613067627
      ],
      "type": "VEC3"
    },
    {
      "bufferView": 2,
      "byteOffset": 109572,
      "componentType": 5126,
      "count": 8527,
      "max": [
        0.9999500513076782,
        0.9995259046554565,
        0.9987017512321472
      ],
      "min": [
        -0.9999376535415649,
        -0.9999828934669495,
        -0.9988791942596436
      ],
      "type": "VEC3"
    },
    {
      "bufferView": 1,
      "byteOffset": 21744,
      "componentType": 5126,
      "count": 8527,
      "max": [
        0.9923499822616577,
        0.9944798946380615
      ],
      "min": [
        0.006187036633491516,
        0.02368795871734619
      ],
      "type": "VEC2"
    },
    {
      "bufferView": 1,
      "byteOffset": 89960,
      "componentType": 5126,
      "count": 8527,
      "max": [
        0.9923499822616577,
        0.9944798946380615
      ],
      "min": [
        0.006187036633491516,
        0.02368795871734619
      ],
      "type": "VEC2"
    },
    {
      "bufferView": 1,
      "byteOffset": 158176,
      "componentType": 5126,
      "count": 8527,
      "max": [
        0.9923499822616577,
        0.9944798946380615
      ],
      "min": [
        0.006187036633491516,
        0.02368795871734619
      ],
      "type": "VEC2"
    },
    {
      "bufferView": 1,
      "byteOffset": 226392,
      "componentType": 5126,
      "count": 8527,
      "max": [
        0.9923499822616577,
        0.9944798946380615
      ],
      "min": [
        0.006187036633491516,
        0.02368795871734619
      ],
      "type": "VEC2"
    },
    {
      "bufferView": 1,
      "byteOffset": 294608,
      "componentType": 5126,
      "count": 8527,
      "max": [
        0.9923499822616577,
        0.9944798946380615
      ],
      "min": [
        0.006187036633491516,
        0.02368795871734619
      ],
      "type": "VEC2"
    },
    {
      "bufferView": 1,
      "byteOffset": 362824,
      "componentType": 5126,
      "count": 8527,
      "max": [
        0.9923499822616577,
        0.9944798946380615
      ],
      "min": [
        0.006187036633491516,
        0.02368795871734619
      ],
      "type": "VEC2"
    },
    {
      "bufferView": 1,
      "byteOffset": 431040,
      "componentType": 5126,
      "count": 8527,
      "max": [
        0.9923499822616577,
        0.9944798946380615
      ],
      "min": [
        0.006187036633491516,
        0.02368795871734619
      ],
      "type": "VEC2"
    },
    {
      "bufferView": 1,
      "byteOffset": 499256,
      "componentType": 5126,
      "count": 8527,
      "max": [
        0.9923499822616577,
        0.9944798946380615
      ],
      "min": [
        0.006187036633491516,
        0.02368795871734619
      ],
      "type": "VEC2"
    },
    {
      "bufferView": 1,
      "byteOffset": 567472,
      "componentType": 5126,
      "count": 8527,
      "max": [
        0.9923499822616577,
        0.9944798946380615
      ],
      "min": [
        0.006187036633491516,
        0.02368795871734619
      ],
      "type": "VEC2"
    },
    {
      "bufferView": 0,
      "byteOffset": 6120,
      "componentType": 5125,
      "count": 43407,
      "type": "SCALAR"
    }
  ],
  "asset": {
    "extras": {
      "author": "jeilocreativedesignworld (https://sketchfab.com/jeilocreativedesignworld)",
      "license": "CC-BY-4.0 (http://creativecommons.org/licenses/by/4.0/)",
      "source": "https://sketchfab.com/3d-models/dinosaur-fbx-5d618571be5e4a97ba3f31950530a06e",
      "title": "Dinosaur fbx"
    },
    "generator": "Sketchfab-10.41.0",
    "version": "2.0"
  },
  "bufferViews": [
    {
      "buffer": 0,
      "byteLength": 179748,
      "name": "floatBufferViews",
      "target": 34963
    },
    {
      "buffer": 0,
      "byteLength": 635688,
      "byteOffset": 179748,
      "byteStride": 8,
      "name": "floatBufferViews",
      "target": 34962
    },
    {
      "buffer": 0,
      "byteLength": 211896,
      "byteOffset": 815436,
      "byteStride": 12,
      "name": "floatBufferViews",
      "target": 34962
    }
  ],
  "buffers": [
    {
      "byteLength": 1027332,
      "uri": "scene.bin"
    }
  ],
  "images": [
    {
      "uri": "textures/Material_50_baseColor.png"
    },
    {
      "uri": "textures/Material_51_baseColor.png"
    }
  ],
  "materials": [
    {
      "doubleSided": true,
      "name": "Material_50",
      "pbrMetallicRoughness": {
        "baseColorTexture": {
          "index": 0
        },
        "metallicFactor": 0.0,
        "roughnessFactor": 0.0
      }
    },
    {
      "doubleSided": true,
      "name": "Material_51",
      "pbrMetallicRoughness": {
        "baseColorTexture": {
          "index": 1
        },
        "metallicFactor": 0.0,
        "roughnessFactor": 0.0
      }
    }
  ],
  "meshes": [
    {
      "name": "node_id6_Material_50_0",
      "primitives": [
        {
          "attributes": {
            "NORMAL": 1,
            "POSITION": 0,
            "TEXCOORD_0": 2,
            "TEXCOORD_1": 3,
            "TEXCOORD_2": 4,
            "TEXCOORD_3": 5,
            "TEXCOORD_4": 6,
            "TEXCOORD_5": 7,
            "TEXCOORD_6": 8,
            "TEXCOORD_7": 9,
            "TEXCOORD_8": 10
          },
          "indices": 11,
          "material": 0,
          "mode": 4
        }
      ]
    },
    {
      "name": "node_id9_Material_51_0",
      "primitives": [
        {
          "attributes": {
            "NORMAL": 13,
            "POSITION": 12,
            "TEXCOORD_0": 14,
            "TEXCOORD_1": 15,
            "TEXCOORD_2": 16,
            "TEXCOORD_3": 17,
            "TEXCOORD_4": 18,
            "TEXCOORD_5": 19,
            "TEXCOORD_6": 20,
            "TEXCOORD_7": 21,
            "TEXCOORD_8": 22
          },
          "indices": 23,
          "material": 1,
          "mode": 4
        }
      ]
    }
  ],
  "nodes": [
    {
      "children": [
        1
      ],
      "matrix": [
        1.0,
        0.0,
        0.0,
        0.0,
        0.0,
        2.220446049250313e-16,
        -1.0,
        0.0,
        0.0,
        1.0,
        2.220446049250313e-16,
        0.0,
        0.0,
        0.0,
        0.0,
        1.0
      ],
      "name": "Sketchfab_model"
    },
    {
      "children": [
        2
      ],
      "matrix": [
        1.0,
        0.0,
        0.0,
        0.0,
        0.0,
        0.0,
        1.0,
        0.0,
        0.0,
        -1.0,
        0.0,
        0.0,
        0.0,
        0.0,
        0.0,
        1.0
      ],
      "name": "6bf19f81a1c048d1b888c7324f98e4b2.fbx"
    },
    {
      "children": [
        3
      ],
      "name": "RootNode"
    },
    {
      "children": [
        4
      ],
      "name": "root"
    },
    {
      "children": [
        5
      ],
      "matrix": [
        0.0010000000474974513,
        0.0,
        0.0,
        0.0,
        0.0,
        0.0010000000474974513,
        0.0,
        0.0,
        0.0,
        0.0,
        0.0010000000474974513,
        0.0,
        0.0,
        0.0,
        0.0,
        1.0
      ],
      "name": "node_id92"
    },
    {
      "children": [
        6,
        9
      ],
      "matrix": [
        153.67825317382813,
        0.0,
        0.0,
        0.0,
        0.0,
        153.67825317382813,
        0.0,
        0.0,
        0.0,
        0.0,
        153.67825317382813,
        0.0,
        -18.94438934326172,
        -243.93687438964844,
        682.7286987304688,
        1.0
      ],
      "name": "node_id4"
    },
    {
      "children": [
        7
      ],
      "matrix": [
        1.0,
        0.0,
        0.0,
        0.0,
        0.0,
        1.0,
        0.0,
        0.0,
        0.0,
        0.0,
        1.0,
        0.0,
        0.0,
        1.4135504961013794,
        0.08253779262304306,
        1.0
      ],
      "name": "node_id5"
    },
    {
      "children": [
        8
      ],
      "name": "node_id6"
    },
    {
      "mesh": 0,
      "name": "node_id6_Material_50_0"
    },
    {
      "children": [
        10
      ],
      "name": "node_id8"
    },
    {
      "children": [
        11
      ],
      "name": "node_id9"
    },
    {
      "mesh": 1,
      "name": "node_id9_Material_51_0"
    }
  ],
  "samplers": [
    {
      "magFilter": 9729,
      "minFilter": 9987,
      "wrapS": 10497,
      "wrapT": 10497
    }
  ],
  "scene": 0,
  "scenes": [
    {
      "name": "Sketchfab_Scene",
      "nodes": [
        0
      ]
    }
  ],
  "textures": [
    {
      "sampler": 0,
      "source": 0
    },
    {
      "sampler": 0,
      "source": 1
    }
  ]
}
